# xmcd
#
# Track frame offsets:
#	150
#	120904
#	149203
#	190192
#	216286
#
# Disc length: 3249 seconds
#
# Revision: 0
# Processed by: cddbd v1.4PL0 Copyright (c) Steve Scherf et al.
# Submitted via: audiograbber 1.81.02
#
DISCID=4b0caf05
DTITLE=Allman Brothers - 1996-06-22 - Darien Lake, NY - Disc 2
DYEAR=1900
DGENRE=
TTITLE0=abb1996-06 - 22d2t01
TTITLE1=abb1996-06 - 22d2t02
TTITLE2=abb1996-06 - 22d2t03
TTITLE3=abb1996-06 - 22d2t04
TTITLE4=abb1996-06 - 22d2t05
EXTD=
EXTT0=
EXTT1=
EXTT2=
EXTT3=
EXTT4=
PLAYORDER=
